<?xml version="1.0" encoding="UTF-8"?>
<svg width="25px" height="15px" viewBox="0 0 25 15" version="1.1" xmlns="http://www.w3.org/2000/svg" xmlns:xlink="http://www.w3.org/1999/xlink">
    <!-- Generator: Sketch 51.2 (57519) - http://www.bohemiancoding.com/sketch -->
    <title>corner</title>
    <desc>Created with Sketch.</desc>
    <defs></defs>
    <g id="Page-1" stroke="none" stroke-width="1" fill="none" fill-rule="evenodd">
        <g id="geeky-simple-footer" transform="translate(-414.000000, -1330.000000)" fill="#41C2A5" fill-rule="nonzero">
            <g id="up-arrow" transform="translate(426.500000, 1337.500000) rotate(-180.000000) translate(-426.500000, -1337.500000) translate(414.000000, 1330.000000)">
                <path d="M24.7502877,11.8725601 L13.0759349,0.249505386 C12.9091384,0.083255824 12.7172478,0 12.5001754,0 C12.2831031,0 12.0908615,0.083255824 11.9239773,0.249505386 L0.250589622,11.8725601 C0.0833543911,12.0390717 0,12.230132 0,12.4463526 C0,12.6624857 0.0836176154,12.8538081 0.250589622,13.0199703 L1.5028358,14.266711 C1.66980781,14.4329606 1.86196161,14.5160417 2.079034,14.5160417 C2.29610638,14.5160417 2.48826019,14.4329606 2.65523219,14.266711 L12.5001754,4.46453896 L22.3454697,14.2673225 C22.5123539,14.4335721 22.7045955,14.516129 22.9213169,14.516129 C23.1387402,14.516129 23.3308941,14.4330479 23.4977783,14.2673225 L24.7502,13.0200577 C24.9170842,12.8538955 24.9999999,12.6624857 24.9999999,12.4464399 C25.0000877,12.230132 24.917172,12.0388096 24.7502877,11.8725601 Z" id="corner"></path>
            </g>
        </g>
    </g>
</svg>