<?xml version="1.0" encoding="UTF-8"?>
<svg width="21px" height="21px" viewBox="0 0 21 21" version="1.1" xmlns="http://www.w3.org/2000/svg" xmlns:xlink="http://www.w3.org/1999/xlink">
    <!-- Generator: Sketch 51.3 (57544) - http://www.bohemiancoding.com/sketch -->
    <title>Facebook</title>
    <desc>Created with Sketch.</desc>
    <defs></defs>
    <g id="Page-1" stroke="none" stroke-width="1" fill="none" fill-rule="evenodd">
        <g id="geeky-simple-footer" transform="translate(-1259.000000, -1766.000000)" fill="#A8ACB9">
            <g id="Card-9" transform="translate(48.000000, 1654.000000)">
                <g id="Footer">
                    <g id="Follow-us" transform="translate(1160.000000, 112.000000)">
                        <g id="Socials">
                            <path d="M70.842,0 L52.158,0 C51.518,0 51,0.518 51,1.158 L51,19.842 C51,20.482 51.518,21 52.158,21 L62,21 L62,13 L59,13 L59,10 L62,10 L62,7 C62,4.287 63.58,3 66,3 C67.159,3 68.71,3.149 69,3.187 L69,6 L67,6 C65.684,6 65,7.082 65,8 L65,10 L69,10 L68.406,13 L65,13 L65,21 L70.842,21 C71.482,21 72,20.482 72,19.842 L72,1.158 C72,0.518 71.482,0 70.842,0 L70.842,0 Z" id="Facebook"></path>
                        </g>
                    </g>
                </g>
            </g>
        </g>
    </g>
</svg>