<?xml version="1.0" encoding="UTF-8"?>
<svg width="21px" height="21px" viewBox="0 0 21 21" version="1.1" xmlns="http://www.w3.org/2000/svg" xmlns:xlink="http://www.w3.org/1999/xlink">
    <!-- Generator: Sketch 51.3 (57544) - http://www.bohemiancoding.com/sketch -->
    <title>instagram</title>
    <desc>Created with Sketch.</desc>
    <defs></defs>
    <g id="Page-1" stroke="none" stroke-width="1" fill="none" fill-rule="evenodd">
        <g id="geeky-simple-footer" transform="translate(-1310.000000, -1766.000000)" fill="#A8ACB9" fill-rule="nonzero">
            <g id="instagram" transform="translate(1310.000000, 1766.000000)">
                <path d="M15.3258574,0 L5.67414258,0 C2.54542969,0 0,2.54542969 0,5.67414258 L0,15.3258574 C0,18.4545703 2.54542969,21 5.67414258,21 L15.3258574,21 C18.4545703,21 21,18.4545703 21,15.3258574 L21,5.67414258 C21,2.54542969 18.4545703,0 15.3258574,0 Z M19.3034297,15.3258574 C19.3034297,17.5190859 17.519127,19.3034297 15.3258574,19.3034297 L5.67414258,19.3034297 C3.48091406,19.3034297 1.69657031,17.519127 1.69657031,15.3258574 L1.69657031,5.67414258 C1.69657031,3.48091406 3.48087305,1.69657031 5.67414258,1.69657031 L15.3258574,1.69657031 C17.5190859,1.69657031 19.3034297,3.48087305 19.3034297,5.67414258 L19.3034297,15.3258574 Z" id="Shape"></path>
                <path d="M15.3680282,10.0182905 C15.2187313,9.01147998 14.7593973,8.09896436 14.0396962,7.37926318 C13.319995,6.65960303 12.4074794,6.20022803 11.4007098,6.05097217 C10.9423192,5.98300928 10.4775712,5.98300928 10.0192216,6.05097217 C8.77497156,6.23550146 7.67710632,6.89347412 6.92779187,7.90372998 C6.17847742,8.91398584 5.8673739,10.1556108 6.0519032,11.3997788 C6.23643249,12.6439878 6.89440515,13.741853 7.90466101,14.4912085 C8.72480945,15.0995112 9.69728992,15.4189409 10.6999989,15.4189409 C10.9324344,15.4189409 11.1665516,15.4017964 11.4006688,15.3670562 C12.6449188,15.1825269 13.7427841,14.5245542 14.4920985,13.5142983 C15.241454,12.5040835 15.5525575,11.2624995 15.3680282,10.0182905 Z M11.151827,13.6888198 C10.3559188,13.8070269 9.56165124,13.607896 8.91536804,13.1285464 C8.26908484,12.6491968 7.84818249,11.9468452 7.73018054,11.150937 C7.61213757,10.3550288 7.81110437,9.56076123 8.29045398,8.91447803 C8.7698446,8.26819482 9.47215515,7.84729248 10.2681044,7.72924951 C10.4146942,7.70751123 10.5623094,7.69664209 10.7099247,7.69664209 C10.8575399,7.69664209 11.0051962,7.70751123 11.151786,7.72929053 C12.4737606,7.9253042 13.4936962,8.94519873 13.6897509,10.2672144 C13.9333837,11.9102183 12.794913,13.445187 11.151827,13.6888198 Z" id="Shape"></path>
                <path d="M16.4481797,4.24847266 C16.2901875,4.09052148 16.0715332,4 15.8483262,4 C15.6251191,4 15.4064648,4.09048047 15.2484727,4.24847266 C15.0905215,4.40646484 15,4.62475 15,4.84832617 C15,5.07190234 15.0905215,5.2901875 15.2484727,5.44817969 C15.4064648,5.60613086 15.6251191,5.69665234 15.8483262,5.69665234 C16.0715332,5.69665234 16.2901875,5.60617187 16.4481797,5.44817969 C16.6061309,5.2901875 16.6966523,5.0715332 16.6966523,4.84832617 C16.6966523,4.62507812 16.6061309,4.40642383 16.4481797,4.24847266 Z" id="Shape"></path>
            </g>
        </g>
    </g>
</svg>