<?xml version="1.0" encoding="UTF-8"?>
<svg width="22px" height="28px" viewBox="0 0 22 28" version="1.1" xmlns="http://www.w3.org/2000/svg" xmlns:xlink="http://www.w3.org/1999/xlink">
    <!-- Generator: Sketch 51.2 (57519) - http://www.bohemiancoding.com/sketch -->
    <title>notify</title>
    <desc>Created with Sketch.</desc>
    <defs></defs>
    <g id="Page-1" stroke="none" stroke-width="1" fill="none" fill-rule="evenodd">
        <g id="geeky-simple-footer" transform="translate(-1182.000000, -68.000000)" fill="#FDD835" fill-rule="nonzero">
            <g id="notify" transform="translate(1182.000000, 68.000000)">
                <path d="M11.5,28 C13.4324954,28 15,26.6576218 15,25 L8,25 C8,26.6572227 9.56750466,28 11.5,28 Z" id="Shape"></path>
                <path d="M20.7624286,19.4719334 L20.0708961,13.3634998 C20.0708961,8.89172063 16.9804346,5.16029051 12.8663144,4.27993528 L12.8663144,1.90869164 C12.8663144,0.854657884 12.0310194,0 11.0008655,0 C9.97027863,0 9.13498363,0.854657884 9.13498363,1.90869164 L9.13498363,4.27993528 C5.02086344,5.16029051 1.93040183,8.89216368 1.93040183,13.3634998 L1.23886937,19.4710473 C0.50793211,19.8312529 0,20.5893243 0,21.4749963 L0,21.6872208 C0,22.9189205 0.974727348,23 2.1780891,23 L19.8214768,23 C21.0244055,23 21.9999989,22.9189205 21.9999989,21.6872208 L21.9999989,21.4749963 C22.0008649,20.5897674 21.4924999,19.8321391 20.7624286,19.4719334 Z" id="Shape"></path>
            </g>
        </g>
    </g>
</svg>