<?xml version="1.0" encoding="UTF-8"?>
<svg width="22px" height="18px" viewBox="0 0 22 18" version="1.1" xmlns="http://www.w3.org/2000/svg" xmlns:xlink="http://www.w3.org/1999/xlink">
    <!-- Generator: Sketch 51.3 (57544) - http://www.bohemiancoding.com/sketch -->
    <title>Twitter</title>
    <desc>Created with Sketch.</desc>
    <defs></defs>
    <g id="Page-1" stroke="none" stroke-width="1" fill="none" fill-rule="evenodd">
        <g id="geeky-simple-footer" transform="translate(-1208.000000, -1767.000000)" fill="#A8ACB9">
            <g id="Card-9" transform="translate(48.000000, 1654.000000)">
                <g id="Footer">
                    <g id="Follow-us" transform="translate(1160.000000, 112.000000)">
                        <g id="Socials">
                            <path d="M21.997,3.131 C21.188,3.492 20.318,3.736 19.405,3.847 C20.337,3.284 21.052,2.394 21.389,1.333 C20.516,1.854 19.551,2.232 18.523,2.435 C17.7,1.552 16.527,1 15.229,1 C12.736,1 10.715,3.035 10.715,5.544 C10.715,5.901 10.756,6.247 10.832,6.58 C7.082,6.391 3.757,4.581 1.531,1.833 C1.143,2.503 0.921,3.284 0.921,4.117 C0.921,5.693 1.718,7.084 2.928,7.898 C2.188,7.875 1.492,7.67 0.884,7.33 L0.884,7.387 C0.884,9.589 2.439,11.425 4.505,11.843 C4.125,11.947 3.728,12.002 3.316,12.002 C3.025,12.002 2.742,11.974 2.467,11.92 C3.04,13.725 4.708,15.039 6.682,15.076 C5.137,16.294 3.191,17.021 1.077,17.021 C0.713,17.021 0.353,16.999 0,16.958 C1.997,18.247 4.369,18.999 6.918,18.999 C15.219,18.999 19.758,12.075 19.758,6.071 C19.758,5.874 19.753,5.679 19.745,5.484 C20.627,4.843 21.392,4.043 21.997,3.132 L21.997,3.131 L21.997,3.131 Z" id="Twitter"></path>
                        </g>
                    </g>
                </g>
            </g>
        </g>
    </g>
</svg>