<?xml version="1.0" encoding="UTF-8"?>
<svg width="30px" height="21px" viewBox="0 0 30 21" version="1.1" xmlns="http://www.w3.org/2000/svg" xmlns:xlink="http://www.w3.org/1999/xlink">
    <!-- Generator: Sketch 51.3 (57544) - http://www.bohemiancoding.com/sketch -->
    <title>youtube</title>
    <desc>Created with Sketch.</desc>
    <defs></defs>
    <g id="Page-1" stroke="none" stroke-width="1" fill="none" fill-rule="evenodd">
        <g id="geeky-simple-footer" transform="translate(-1361.000000, -1766.000000)" fill="#A8ACB9" fill-rule="nonzero">
            <g id="youtube" transform="translate(1361.000000, 1766.000000)">
                <path d="M28.8306774,1.78767273 C27.7477742,0.517936364 25.7484194,0 21.9300968,0 L8.0696129,0 C4.16390323,0 2.13067742,0.551345455 1.05183871,1.90317273 C0,3.22120909 0,5.16323182 0,7.85104091 L0,12.9739909 C0,18.1811318 1.248,20.8249364 8.0696129,20.8249364 L21.9301935,20.8249364 C25.2414194,20.8249364 27.0762581,20.3679 28.2632903,19.2473591 C29.4806129,18.0982773 30,16.2221182 30,12.9739909 L30,7.85104091 C30,5.01651818 29.9186129,3.06304091 28.8306774,1.78767273 Z M19.2600968,11.1197864 L12.9660968,14.3643818 C12.8253871,14.4369273 12.6715161,14.4729136 12.5178387,14.4729136 C12.3438387,14.4729136 12.1702258,14.4267136 12.0164516,14.3348864 C11.7269032,14.1618273 11.5500968,13.8522682 11.5500968,13.5183682 L11.5500968,7.04998636 C11.5500968,6.71665909 11.7264194,6.40738636 12.0153871,6.23423182 C12.3044516,6.06107727 12.6639677,6.04924091 12.963871,6.20292273 L19.257871,9.42661364 C19.5780968,9.59060455 19.7791935,9.91667727 19.7796774,10.2724364 C19.7800645,10.6284818 19.5798387,10.9550318 19.2600968,11.1197864 Z" id="XMLID_823_"></path>
            </g>
        </g>
    </g>
</svg>