<?xml version="1.0" encoding="UTF-8"?>
<svg width="49px" height="42px" viewBox="0 0 49 42" version="1.1" xmlns="http://www.w3.org/2000/svg" xmlns:xlink="http://www.w3.org/1999/xlink">
    <g id="Page-1-logo" stroke="none" stroke-width="1" fill="none" fill-rule="evenodd">
        <g id="geeky-simple-footer-logo" transform="translate(-61.000000, -61.000000)" fill-rule="nonzero">
            <g id="logo" transform="translate(61.000000, 61.000000)">
                <polygon id="Shape-logo" fill="#CCCCCC" points="27.9942439 27.9314894 27.9942439 27.9329894 27.9927439 27.9314894"></polygon>
                <polygon id="Shape-logo" fill="#FF7DFF" points="41.9696951 41.8659574 41.9696951 34.8987234 34.9812195 34.8987234"></polygon>
                <polygon id="Shape-logo" fill="#FF7DFF" points="41.9696951 27.9314894 41.9696951 34.8987234 48.9581707 27.9314894"></polygon>
                <rect id="Rectangle-path-logo" fill="#E17AFF" x="34.9812195" y="27.9314894" width="6.98847561" height="6.96723404"></rect>
                <rect id="Rectangle-path-logo" fill="#E17AFF" x="41.9696951" y="20.9657447" width="6.98847561" height="6.96723404"></rect>
                <rect id="Rectangle-path-logo" fill="#B172FF" x="34.9812195" y="20.9657447" width="6.98847561" height="6.96723404"></rect>
                <rect id="Rectangle-path-logo" fill="#B172FF" x="41.9696951" y="13.9985106" width="6.98847561" height="6.96723404"></rect>
                <rect id="Rectangle-path-logo" fill="#B172FF" x="27.9942378" y="27.9314894" width="6.98847561" height="6.96723404"></rect>
                <rect id="Rectangle-path-logo" fill="#8B6CFF" x="34.9812195" y="13.9985106" width="6.98847561" height="6.96723404"></rect>
                <polygon id="Shape-logo" fill="#8B6CFF" points="41.971189 8.77234043 41.971189 13.9985106 48.9581707 13.9985106 43.717561 8.77234043"></polygon>
                <rect id="Rectangle-path-logo" fill="#8B6CFF" x="27.9942378" y="20.9657447" width="6.98847561" height="6.96723404"></rect>
                <polygon id="Shape-logo" fill="#6F67FF" points="40.2233232 7.0312766 34.9812195 7.0312766 34.9812195 13.9985106 41.971189 13.9985106 41.971189 8.77234043 40.2233232 8.77234043"></polygon>
                <rect id="Rectangle-path-logo" fill="#6F67FF" x="21.0057622" y="20.9657447" width="6.98847561" height="6.96723404"></rect>
                <rect id="Rectangle-path-logo" fill="#6F67FF" x="27.9942378" y="13.9985106" width="6.98847561" height="6.96723404"></rect>
                <polygon id="Shape-logo" fill="#6882FF" points="36.7290854 1.80659574 34.9812195 1.80659574 34.9812195 7.0312766 40.2233232 7.0312766 40.2233232 5.29021277"></polygon>
                <rect id="Rectangle-path-logo" fill="#6882FF" x="21.0057622" y="13.9985106" width="6.98847561" height="6.96723404"></rect>
                <rect id="Rectangle-path-logo" fill="#6882FF" x="27.9942378" y="7.0312766" width="6.98847561" height="6.96723404"></rect>
                <polygon id="Shape-logo" fill="#6882FF" points="14.0172866 24.4478723 17.5115244 24.4478723 21.0057622 27.9314894 21.0057622 20.9657447 14.0172866 20.9657447"></polygon>
                <rect id="Rectangle-path-logo" fill="#5F99FF" x="21.0057622" y="7.0312766" width="6.98847561" height="6.96723404"></rect>
                <polygon id="Shape-logo" fill="#5F99FF" points="29.7406098 1.80659574 27.9942378 0.0640425532 27.9942378 7.0312766 34.9812195 7.0312766 34.9812195 1.80659574"></polygon>
                <rect id="Rectangle-path-logo" fill="#5F99FF" x="7.02881098" y="20.9657447" width="6.98847561" height="3.48361702"></rect>
                <rect id="Rectangle-path-logo" fill="#5F99FF" x="14.0172866" y="13.9985106" width="6.98847561" height="6.96723404"></rect>
                <rect id="Rectangle-path-logo" fill="#52B7FF" x="21.0057622" y="0.0640425532" width="6.98847561" height="6.96723404"></rect>
                <rect id="Rectangle-path-logo" fill="#52B7FF" x="7.02881098" y="13.9985106" width="6.98847561" height="6.96723404"></rect>
                <rect id="Rectangle-path-logo" fill="#52B7FF" x="14.0172866" y="7.0312766" width="6.98847561" height="6.96723404"></rect>
                <polygon id="Shape-logo" fill="#52B7FF" points="7.02881098 24.4478723 7.02881098 20.9657447 3.53606707 20.9657447"></polygon>
                <polygon id="Shape-logo" fill="#00FFFF" points="3.53606707 7.0312766 7.02881098 7.0312766 7.02881098 3.54765957"></polygon>
                <rect id="Rectangle-path-logo" fill="#CCCCCC" x="14.0172866" y="0.0655319149" width="1" height="6.96574468"></rect>
                <rect id="Rectangle-path-logo" fill="#36D6FF" x="7.02881098" y="7.0312766" width="6.98847561" height="6.96723404"></rect>
                <polygon id="Shape-logo" fill="#36D6FF" points="14.0172866 0.0640425532 14.0172866 0.0655319149 14.0172866 7.0312766 21.0057622 7.0312766 21.0057622 0.0640425532"></polygon>
                <polygon id="Shape-logo" fill="#36D6FF" points="0.0418292683 17.4821277 3.53606707 20.9657447 7.02881098 20.9657447 7.02881098 13.9985106 0.0418292683 13.9985106"></polygon>
                <polygon id="Shape-logo" fill="#10EAFF" points="10.5230488 3.54765957 7.02881098 3.54765957 7.02881098 7.0312766 14.0172866 7.0312766 14.0172866 0.0655319149"></polygon>
                <polygon id="Shape-logo" fill="#10EAFF" points="0.0418292683 10.5148936 0.0418292683 13.9985106 7.02881098 13.9985106 7.02881098 7.0312766 3.53606707 7.0312766"></polygon>
            </g>
        </g>
    </g>
</svg>
